<?xml version="1.0" encoding="UTF-8" standalone="no"?>
<!-- Created with Inkscape (http://www.inkscape.org/) -->

<svg
   width="276"
   height="40"
   viewBox="0 0 73.025 10.583334"
   version="1.1"
   id="svg5"
   inkscape:version="1.3.2 (091e20ef0f, 2023-11-25, custom)"
   sodipodi:docname="new_game_bttn.svg"
   xml:space="preserve"
   inkscape:export-filename="button.png"
   inkscape:export-xdpi="95.999985"
   inkscape:export-ydpi="95.999985"
   xmlns:inkscape="http://www.inkscape.org/namespaces/inkscape"
   xmlns:sodipodi="http://sodipodi.sourceforge.net/DTD/sodipodi-0.dtd"
   xmlns="http://www.w3.org/2000/svg"
   xmlns:svg="http://www.w3.org/2000/svg"><sodipodi:namedview
     id="namedview7"
     pagecolor="#ffffff"
     bordercolor="#111111"
     borderopacity="1"
     inkscape:showpageshadow="0"
     inkscape:pageopacity="0"
     inkscape:pagecheckerboard="1"
     inkscape:deskcolor="#d1d1d1"
     inkscape:document-units="px"
     showgrid="false"
     inkscape:zoom="2.1518345"
     inkscape:cx="214.46817"
     inkscape:cy="-28.812625"
     inkscape:window-width="1920"
     inkscape:window-height="1008"
     inkscape:window-x="1920"
     inkscape:window-y="0"
     inkscape:window-maximized="1"
     inkscape:current-layer="g1" /><defs
     id="defs2"><inkscape:path-effect
       effect="clone_original"
       linkeditem=""
       id="path-effect2747"
       is_visible="true"
       lpeversion="1"
       method="d"
       attributes=""
       css_properties=""
       allow_transforms="true" /></defs><g
     inkscape:groupmode="layer"
     id="layer1"
     inkscape:label="release"
     style="display:inline"
     transform="translate(-94.720871,-17.462502)"><rect
       style="fill:#8f7a66;fill-opacity:1;stroke:none;stroke-width:0;stroke-linecap:round;stroke-linejoin:bevel;stroke-dasharray:none;stroke-opacity:1;paint-order:normal"
       id="rect33"
       width="36.512501"
       height="10.583334"
       x="94.720871"
       y="17.462502"
       ry="1.2017081"
       inkscape:label="new_game_button" /><path
       d="m 101.53942,24.658616 -1.38906,-2.725757 v 2.725757 h -0.760676 v -3.814407 h 1.008726 l 1.2926,2.571418 v -2.571418 h 0.76343 v 3.814407 z m 2.31235,-1.259526 q 0.0193,0.385851 0.18741,0.553971 0.16812,0.168121 0.52917,0.168121 0.20946,0 0.36656,-0.05237 0.15985,-0.05237 0.27836,-0.201193 l 0.52917,0.377582 q -0.17364,0.250803 -0.452,0.374826 -0.27561,0.124023 -0.75516,0.124023 -0.71383,0 -1.0666,-0.374826 -0.35003,-0.374826 -0.35003,-1.132746 0,-1.55167 1.38907,-1.55167 0.61736,0 0.93982,0.350021 0.32521,0.347266 0.32521,1.014236 v 0.350021 z m 1.21543,-0.490581 q 0,-0.658702 -0.57602,-0.658702 -0.19017,0 -0.31144,0.06615 -0.12126,0.06339 -0.19568,0.192925 -0.0717,0.12678 -0.113,0.399631 z m 4.41247,1.750107 H 108.832 l -0.65044,-1.841058 -0.65319,1.841058 h -0.65043 l -0.78824,-2.891122 h 0.73863 l 0.44648,1.863106 0.64768,-1.863106 h 0.53744 l 0.65319,1.84657 0.42994,-1.84657 h 0.71107 z m 5.14008,-2.742294 q -0.14607,-0.237022 -0.35553,-0.350021 -0.20946,-0.112999 -0.52641,-0.112999 -0.5209,0 -0.75517,0.336241 -0.23151,0.333485 -0.23151,0.994943 0,0.655945 0.22876,0.96187 0.23151,0.303168 0.74138,0.303168 0.38585,0 0.71107,-0.159853 v -0.592556 h -0.74414 v -0.686262 h 1.52411 v 1.686717 q -0.26458,0.198438 -0.6587,0.319705 -0.39137,0.121267 -0.80753,0.121267 -0.89297,0 -1.34497,-0.465776 -0.45199,-0.465777 -0.45199,-1.48828 0,-2.020203 1.77766,-2.020203 0.51815,0 0.904,0.173633 0.38585,0.173632 0.58704,0.509874 z m 3.07027,2.742294 v -0.300412 q -0.42168,0.38585 -0.90399,0.38585 -0.47956,0 -0.72485,-0.250802 -0.24529,-0.253559 -0.24529,-0.647678 0,-0.30868 0.12402,-0.509874 0.12678,-0.201193 0.37207,-0.314192 0.24805,-0.115755 0.71107,-0.162608 l 0.60909,-0.05788 v -0.129535 q 0,-0.242535 -0.14607,-0.330729 -0.14607,-0.09095 -0.42719,-0.09095 -0.23151,0 -0.39963,0.07717 -0.16537,0.07717 -0.24529,0.220486 l -0.55397,-0.355533 q 0.14607,-0.245291 0.45751,-0.374826 0.31143,-0.132292 0.7524,-0.132292 0.67524,0 0.9729,0.237022 0.30041,0.234267 0.30041,0.771701 v 1.965081 z m -0.0579,-1.342208 -0.36104,0.03307 q -0.3831,0.03307 -0.55397,0.146072 -0.16812,0.112999 -0.16812,0.338997 0,0.198437 0.11024,0.272851 0.11024,0.07166 0.29214,0.07166 0.12954,0 0.31419,-0.07993 0.18742,-0.08268 0.36656,-0.23151 z m 4.93613,1.342208 v -1.703254 q 0,-0.256315 -0.0303,-0.399631 -0.0303,-0.143315 -0.0937,-0.192925 -0.0606,-0.05237 -0.20395,-0.05237 -0.16261,0 -0.34451,0.121267 -0.1819,0.121267 -0.339,0.297656 v 1.929252 h -0.71107 v -1.703254 q 0,-0.281119 -0.0248,-0.405143 -0.0248,-0.126779 -0.0882,-0.181901 -0.0634,-0.05788 -0.21498,-0.05788 -0.13229,0 -0.30592,0.101975 -0.17364,0.09922 -0.37758,0.316948 v 1.929252 h -0.71107 v -2.891122 h 0.71107 v 0.374826 q 0.19843,-0.214974 0.41616,-0.336241 0.21773,-0.121267 0.48232,-0.121267 0.36104,0 0.53192,0.124023 0.17363,0.124024 0.23702,0.366558 0.24805,-0.248047 0.46302,-0.369314 0.21773,-0.121267 0.50712,-0.121267 0.42168,0 0.6146,0.239778 0.19293,0.239779 0.19293,0.804774 v 1.929252 z m 2.07532,-1.259526 q 0.0193,0.385851 0.18742,0.553971 0.16812,0.168121 0.52916,0.168121 0.20947,0 0.36656,-0.05237 0.15985,-0.05237 0.27837,-0.201193 l 0.52916,0.377582 q -0.17363,0.250803 -0.45199,0.374826 -0.27561,0.124023 -0.75517,0.124023 -0.71382,0 -1.0666,-0.374826 -0.35002,-0.374826 -0.35002,-1.132746 0,-1.55167 1.38906,-1.55167 0.61736,0 0.93982,0.350021 0.32522,0.347266 0.32522,1.014236 v 0.350021 z m 1.21543,-0.490581 q 0,-0.658702 -0.57602,-0.658702 -0.19017,0 -0.31143,0.06615 -0.12127,0.06339 -0.19568,0.192925 -0.0717,0.12678 -0.113,0.399631 z"
       id="text34"
       style="font-weight:bold;font-size:5.64444px;line-height:1.25;font-family:'Clear Sans';-inkscape-font-specification:'Clear Sans, Bold';fill:#f2e9e1;stroke-width:0.264583"
       inkscape:label="new_game"
       aria-label="New Game" /></g><g
     inkscape:groupmode="layer"
     id="g1"
     inkscape:label="press"
     style="display:inline"
     transform="translate(-58.20837,-17.462502)"><rect
       style="fill:#4d4138;fill-opacity:1;stroke:none;stroke-width:0;stroke-linecap:round;stroke-linejoin:bevel;stroke-dasharray:none;stroke-opacity:1;paint-order:normal"
       id="rect1"
       width="36.512501"
       height="10.583334"
       x="94.720871"
       y="17.462502"
       ry="1.2017081"
       inkscape:label="new_game_button" /><path
       d="m 101.53942,24.658616 -1.38906,-2.725757 v 2.725757 h -0.760676 v -3.814407 h 1.008726 l 1.2926,2.571418 v -2.571418 h 0.76343 v 3.814407 z m 2.31235,-1.259526 q 0.0193,0.385851 0.18741,0.553971 0.16812,0.168121 0.52917,0.168121 0.20946,0 0.36656,-0.05237 0.15985,-0.05237 0.27836,-0.201193 l 0.52917,0.377582 q -0.17364,0.250803 -0.452,0.374826 -0.27561,0.124023 -0.75516,0.124023 -0.71383,0 -1.0666,-0.374826 -0.35003,-0.374826 -0.35003,-1.132746 0,-1.55167 1.38907,-1.55167 0.61736,0 0.93982,0.350021 0.32521,0.347266 0.32521,1.014236 v 0.350021 z m 1.21543,-0.490581 q 0,-0.658702 -0.57602,-0.658702 -0.19017,0 -0.31144,0.06615 -0.12126,0.06339 -0.19568,0.192925 -0.0717,0.12678 -0.113,0.399631 z m 4.41247,1.750107 H 108.832 l -0.65044,-1.841058 -0.65319,1.841058 h -0.65043 l -0.78824,-2.891122 h 0.73863 l 0.44648,1.863106 0.64768,-1.863106 h 0.53744 l 0.65319,1.84657 0.42994,-1.84657 h 0.71107 z m 5.14008,-2.742294 q -0.14607,-0.237022 -0.35553,-0.350021 -0.20946,-0.112999 -0.52641,-0.112999 -0.5209,0 -0.75517,0.336241 -0.23151,0.333485 -0.23151,0.994943 0,0.655945 0.22876,0.96187 0.23151,0.303168 0.74138,0.303168 0.38585,0 0.71107,-0.159853 v -0.592556 h -0.74414 v -0.686262 h 1.52411 v 1.686717 q -0.26458,0.198438 -0.6587,0.319705 -0.39137,0.121267 -0.80753,0.121267 -0.89297,0 -1.34497,-0.465776 -0.45199,-0.465777 -0.45199,-1.48828 0,-2.020203 1.77766,-2.020203 0.51815,0 0.904,0.173633 0.38585,0.173632 0.58704,0.509874 z m 3.07027,2.742294 v -0.300412 q -0.42168,0.38585 -0.90399,0.38585 -0.47956,0 -0.72485,-0.250802 -0.24529,-0.253559 -0.24529,-0.647678 0,-0.30868 0.12402,-0.509874 0.12678,-0.201193 0.37207,-0.314192 0.24805,-0.115755 0.71107,-0.162608 l 0.60909,-0.05788 v -0.129535 q 0,-0.242535 -0.14607,-0.330729 -0.14607,-0.09095 -0.42719,-0.09095 -0.23151,0 -0.39963,0.07717 -0.16537,0.07717 -0.24529,0.220486 l -0.55397,-0.355533 q 0.14607,-0.245291 0.45751,-0.374826 0.31143,-0.132292 0.7524,-0.132292 0.67524,0 0.9729,0.237022 0.30041,0.234267 0.30041,0.771701 v 1.965081 z m -0.0579,-1.342208 -0.36104,0.03307 q -0.3831,0.03307 -0.55397,0.146072 -0.16812,0.112999 -0.16812,0.338997 0,0.198437 0.11024,0.272851 0.11024,0.07166 0.29214,0.07166 0.12954,0 0.31419,-0.07993 0.18742,-0.08268 0.36656,-0.23151 z m 4.93613,1.342208 v -1.703254 q 0,-0.256315 -0.0303,-0.399631 -0.0303,-0.143315 -0.0937,-0.192925 -0.0606,-0.05237 -0.20395,-0.05237 -0.16261,0 -0.34451,0.121267 -0.1819,0.121267 -0.339,0.297656 v 1.929252 h -0.71107 v -1.703254 q 0,-0.281119 -0.0248,-0.405143 -0.0248,-0.126779 -0.0882,-0.181901 -0.0634,-0.05788 -0.21498,-0.05788 -0.13229,0 -0.30592,0.101975 -0.17364,0.09922 -0.37758,0.316948 v 1.929252 h -0.71107 v -2.891122 h 0.71107 v 0.374826 q 0.19843,-0.214974 0.41616,-0.336241 0.21773,-0.121267 0.48232,-0.121267 0.36104,0 0.53192,0.124023 0.17363,0.124024 0.23702,0.366558 0.24805,-0.248047 0.46302,-0.369314 0.21773,-0.121267 0.50712,-0.121267 0.42168,0 0.6146,0.239778 0.19293,0.239779 0.19293,0.804774 v 1.929252 z m 2.07532,-1.259526 q 0.0193,0.385851 0.18742,0.553971 0.16812,0.168121 0.52916,0.168121 0.20947,0 0.36656,-0.05237 0.15985,-0.05237 0.27837,-0.201193 l 0.52916,0.377582 q -0.17363,0.250803 -0.45199,0.374826 -0.27561,0.124023 -0.75517,0.124023 -0.71382,0 -1.0666,-0.374826 -0.35002,-0.374826 -0.35002,-1.132746 0,-1.55167 1.38906,-1.55167 0.61736,0 0.93982,0.350021 0.32522,0.347266 0.32522,1.014236 v 0.350021 z m 1.21543,-0.490581 q 0,-0.658702 -0.57602,-0.658702 -0.19017,0 -0.31143,0.06615 -0.12127,0.06339 -0.19568,0.192925 -0.0717,0.12678 -0.113,0.399631 z"
       id="path1"
       style="font-weight:bold;font-size:5.64444px;line-height:1.25;font-family:'Clear Sans';-inkscape-font-specification:'Clear Sans, Bold';fill:#f2e9e1;stroke-width:0.264583"
       inkscape:label="new_game"
       aria-label="New Game" /></g></svg>
